<svg xmlns="http://www.w3.org/2000/svg" xmlns:xlink="http://www.w3.org/1999/xlink" width="71" height="71" viewBox="0 0 71 71"><defs><style>.a{fill:#415578;}.b{fill:#fff;}.c{filter:url(#a);}</style><filter id="a" x="0" y="0" width="71" height="71" filterUnits="userSpaceOnUse"><feOffset dy="3" input="SourceAlpha"/><feGaussianBlur stdDeviation="3" result="b"/><feFlood flood-color="#415578" flood-opacity="0.212"/><feComposite operator="in" in2="b"/><feComposite in="SourceGraphic"/></filter></defs><g transform="translate(9 6.339)"><g class="c" transform="matrix(1, 0, 0, 1, -9, -6.34)"><circle class="a" cx="26.5" cy="26.5" r="26.5" transform="translate(9 6)"/></g><g transform="translate(8.192 8.317)"><path class="b" d="M605.055,1555.7l1.372,1.315-1.317,1.37-1.372-1.315" transform="translate(-589.704 -1553.027)"/><path class="b" d="M607.958,1557.069l1.371,1.315,1.319-1.37-1.373-1.315" transform="translate(-589.466 -1553.027)"/><path class="b" d="M606.129,1558.687l1.068,1.024,1.024-1.067-1.067-1.022" transform="translate(-589.569 -1552.92)"/><path class="b" d="M609.837,1559.241l1.068,1.024,1.025-1.067-1.068-1.023" transform="translate(-589.36 -1552.888)"/><path class="b" d="M604.475,1560.229l1.068,1.024,1.024-1.066-1.067-1.024" transform="translate(-589.663 -1552.832)"/><path class="b" d="M607.869,1560.348l1.067,1.023,1.025-1.066-1.068-1.023" transform="translate(-589.471 -1552.825)"/><path class="b" d="M606.542,1561.493l.751.72.721-.75-.751-.72" transform="translate(-589.546 -1552.744)"/><path class="b" d="M609.226,1562.027l.751.721.721-.75-.751-.72" transform="translate(-589.395 -1552.714)"/><rect class="b" width="2.37" height="2.366" transform="matrix(0.984, -0.181, 0.181, 0.984, 26.022, 3.608)"/><rect class="b" width="1.901" height="1.898" transform="translate(22.98 4.582) rotate(-10.354)"/><rect class="b" width="1.902" height="1.899" transform="translate(26.595 7.185) rotate(-10.393)"/><rect class="b" width="1.48" height="1.477" transform="translate(24.016 7.459) rotate(-10.409)"/><rect class="b" width="1.481" height="1.477" transform="translate(26.849 10.22) rotate(-10.35)"/><rect class="b" width="1.481" height="1.478" transform="translate(21.833 8.05) rotate(-10.4)"/><rect class="b" width="1.48" height="1.477" transform="matrix(0.984, -0.18, 0.18, 0.984, 24.478, 9.954)"/><rect class="b" width="1.042" height="1.04" transform="translate(22.62 10.13) rotate(-10.453)"/><rect class="b" width="1.041" height="1.039" transform="matrix(0.984, -0.18, 0.18, 0.984, 24.59, 12.244)"/><path class="b" d="M621.706,1563.8l-1.019,2.136,2.14,1.016,1.019-2.136" transform="translate(-588.749 -1552.571)"/><path class="b" d="M618.818,1562.868l-.817,1.714,1.716.815.817-1.714" transform="translate(-588.901 -1552.624)"/><path class="b" d="M620.148,1566.865l-.817,1.714,1.716.815.818-1.714" transform="translate(-588.825 -1552.398)"/><path class="b" d="M618.008,1565.648l-.635,1.334,1.337.636.636-1.336" transform="translate(-588.936 -1552.467)"/><path class="b" d="M618.651,1569.335l-.637,1.334,1.337.637.636-1.336" transform="translate(-588.899 -1552.259)"/><path class="b" d="M616,1564.9l-.637,1.334,1.337.637.636-1.336" transform="translate(-589.049 -1552.51)"/><path class="b" d="M616.978,1567.818l-.637,1.334,1.337.635.637-1.335" transform="translate(-588.994 -1552.344)"/><path class="b" d="M615.445,1566.929l-.447.939.94.446.449-.938" transform="translate(-589.07 -1552.396)"/><rect class="b" width="1.041" height="1.041" transform="translate(26.284 18.333) rotate(-64.561)"/><path class="b" d="M622.854,1573.487l-2.079,1.137,1.141,2.075,2.078-1.137" transform="translate(-588.744 -1552.025)"/><path class="b" d="M621.047,1571.05l-1.667.913.914,1.664,1.667-.914" transform="translate(-588.823 -1552.162)"/><path class="b" d="M619.783,1575.068l-1.667.913.914,1.666,1.667-.914" transform="translate(-588.894 -1551.936)"/><path class="b" d="M618.748,1572.837l-1.3.711.712,1.3,1.3-.711" transform="translate(-588.931 -1552.061)"/><path class="b" d="M617.109,1576.2l-1.3.711.712,1.3,1.3-.711" transform="translate(-589.024 -1551.872)"/><path class="b" d="M617.566,1571.058l-1.3.711.712,1.3,1.3-.711" transform="translate(-588.998 -1552.162)"/><path class="b" d="M616.641,1574l-1.3.711.712,1.3,1.3-.71" transform="translate(-589.05 -1551.996)"/><path class="b" d="M615.907,1572.386l-.913.5.5.912.913-.5" transform="translate(-589.07 -1552.087)"/><path class="b" d="M614.592,1574.78l-.913.5.5.91.913-.5" transform="translate(-589.144 -1551.952)"/><rect class="b" width="2.367" height="2.371" transform="matrix(0.122, -0.992, 0.992, 0.122, 26.402, 32.485)"/><rect class="b" width="1.899" height="1.901" transform="matrix(0.124, -0.992, 0.992, 0.124, 26.909, 28.896)"/><rect class="b" width="1.899" height="1.902" transform="matrix(0.123, -0.992, 0.992, 0.123, 23.337, 31.559)"/><rect class="b" width="1.479" height="1.481" transform="translate(24.321 28.662) rotate(-82.958)"/><rect class="b" width="1.479" height="1.481" transform="translate(20.829 30.532) rotate(-82.909)"/><rect class="b" width="1.479" height="1.481" transform="translate(24.407 26.403) rotate(-82.958)"/><rect class="b" width="1.479" height="1.481" transform="translate(21.795 28.348) rotate(-82.909)"/><rect class="b" width="1.04" height="1.042" transform="translate(22.674 26.151) rotate(-82.94)"/><rect class="b" width="1.04" height="1.042" transform="translate(20.061 27.39) rotate(-82.94)"/><path class="b" d="M609.265,1586.154l-1.737-1.609-1.612,1.734,1.737,1.609" transform="translate(-589.582 -1551.401)"/><path class="b" d="M608.962,1554.781l-1.737-1.611-1.612,1.735,1.737,1.609" transform="translate(-589.599 -1553.171)"/><path class="b" d="M610.985,1583.678l-1.394-1.291-1.294,1.392,1.394,1.29" transform="translate(-589.448 -1551.524)"/><path class="b" d="M606.766,1583.749l-1.394-1.291-1.3,1.391,1.394,1.29" transform="translate(-589.685 -1551.52)"/><path class="b" d="M608.534,1582.069l-1.085-1.006-1.007,1.084,1.085,1" transform="translate(-589.552 -1551.599)"/><path class="b" d="M604.818,1581.577l-1.085-1.006-1.007,1.083,1.085,1.006" transform="translate(-589.761 -1551.626)"/><path class="b" d="M609.855,1580.386l-1.086-1.006-1.006,1.083,1.084,1.006" transform="translate(-589.477 -1551.693)"/><path class="b" d="M606.768,1580.436l-1.085-1.005-1.007,1.084,1.085,1" transform="translate(-589.652 -1551.689)"/><path class="b" d="M608.042,1579.238l-.763-.708-.708.763.763.707" transform="translate(-589.545 -1551.741)"/><path class="b" d="M605.35,1578.747l-.764-.708-.708.762.763.708" transform="translate(-589.696 -1551.768)"/><rect class="b" width="2.371" height="2.366" transform="translate(6.767 30.932) rotate(-11.329)"/><rect class="b" width="1.902" height="1.898" transform="translate(10.345 30.273) rotate(-11.31)"/><rect class="b" width="1.902" height="1.898" transform="translate(6.69 27.729) rotate(-11.31)"/><rect class="b" width="1.48" height="1.479" transform="translate(9.757 27.744) rotate(-11.33)"/><rect class="b" width="1.481" height="1.479" transform="translate(11.928 27.118) rotate(-11.379)"/><rect class="b" width="1.48" height="1.479" transform="translate(9.254 25.257) rotate(-11.33)"/><rect class="b" width="1.041" height="1.039" transform="matrix(0.98, -0.197, 0.197, 0.98, 11.622, 25.397)"/><rect class="b" width="1.041" height="1.039" transform="matrix(0.98, -0.197, 0.197, 0.98, 9.62, 23.314)"/><path class="b" d="M592.933,1577.267l.982-2.152-2.157-.982-.982,2.153" transform="translate(-590.435 -1551.988)"/><path class="b" d="M595.8,1578.121l.788-1.728-1.729-.787-.789,1.727" transform="translate(-590.249 -1551.905)"/><path class="b" d="M594.4,1574.148l.788-1.728-1.731-.788-.788,1.728" transform="translate(-590.328 -1552.13)"/><rect class="b" width="1.479" height="1.48" transform="matrix(0.415, -0.91, 0.91, 0.415, 5, 22.655)"/><path class="b" d="M598.242,1578.483l.614-1.345-1.347-.613-.614,1.345" transform="translate(-590.09 -1551.854)"/><rect class="b" width="1.479" height="1.481" transform="translate(4.259 18.769) rotate(-65.45)"/><rect class="b" width="1.479" height="1.48" transform="matrix(0.415, -0.91, 0.91, 0.415, 7.132, 23.412)"/><rect class="b" width="1.479" height="1.48" transform="translate(6.051 20.344) rotate(-65.45)"/><path class="b" d="M599.045,1573.945l.432-.946-.948-.432-.433.947" transform="translate(-590.022 -1552.077)"/><path class="b" d="M598.663,1571.24l.432-.947-.948-.431-.433.947" transform="translate(-590.044 -1552.229)"/><path class="b" d="M591.627,1567.6l2.059-1.171-1.174-2.056-2.06,1.173" transform="translate(-590.453 -1552.538)"/><path class="b" d="M593.44,1569.98l1.653-.942-.943-1.647-1.653.939" transform="translate(-590.338 -1552.369)"/><path class="b" d="M594.638,1565.941l1.653-.941-.943-1.649-1.653.939" transform="translate(-590.27 -1552.596)"/><path class="b" d="M595.678,1568.124l1.285-.733-.733-1.284-1.286.733" transform="translate(-590.2 -1552.44)"/><path class="b" d="M597.262,1564.732l1.285-.733-.733-1.283-1.286.733" transform="translate(-590.11 -1552.632)"/><path class="b" d="M596.889,1569.885l1.287-.733-.733-1.283-1.287.733" transform="translate(-590.131 -1552.342)"/><path class="b" d="M597.766,1566.931l1.286-.732-.733-1.284-1.286.733" transform="translate(-590.082 -1552.509)"/><path class="b" d="M598.494,1568.5l.905-.517-.517-.9-.905.515" transform="translate(-590.029 -1552.386)"/><path class="b" d="M599.77,1566.082l.905-.517-.516-.9-.905.516" transform="translate(-589.957 -1552.522)"/><rect class="b" width="2.366" height="2.371" transform="translate(6.088 6.016) rotate(-83.926)"/><rect class="b" width="1.898" height="1.902" transform="translate(6.158 9.203) rotate(-83.887)"/><rect class="b" width="1.898" height="1.901" transform="translate(9.685 6.481) rotate(-83.887)"/><rect class="b" width="1.478" height="1.481" transform="translate(9.217 9.028) rotate(-83.873)"/><rect class="b" width="1.478" height="1.48" transform="translate(12.672 7.096) rotate(-83.922)"/><rect class="b" width="1.478" height="1.481" transform="translate(9.164 11.285) rotate(-83.922)"/><rect class="b" width="1.478" height="1.481" transform="translate(11.745 9.293) rotate(-83.922)"/><rect class="b" width="1.04" height="1.042" transform="matrix(0.105, -0.994, 0.994, 0.105, 11.387, 11.121)"/><rect class="b" width="1.04" height="1.042" transform="translate(13.978 9.835) rotate(-83.877)"/><path class="b" d="M615.079,1572.3a5.637,5.637,0,0,0-4.757-.267,9.191,9.191,0,0,0-2.227,1.318,24.118,24.118,0,0,1-.114-6.015c0-.006.006-.008.013,0,.894.562.643,2.131.455,2.581,0,.009.011.016.017.007a2.771,2.771,0,0,0,.339-3.134c-.04-.064.211.136.418.4a3.07,3.07,0,0,1,.5,2.078l.005,0a2.622,2.622,0,0,0-.712-3.232c-.048-.04.141.021.2.043a2.172,2.172,0,0,1,1.372,2.082,2.07,2.07,0,0,0-1.614-2.733,2.061,2.061,0,0,1,1.451.289c.4.266.5.589.489.5a1.716,1.716,0,0,0-2.33-1.281,1.164,1.164,0,0,1,1.137-.528,1.14,1.14,0,0,1,.415.1c.007,0,.016-.007.009-.014a1.3,1.3,0,0,0-2.147.093.009.009,0,0,1-.015,0,4.029,4.029,0,0,1-.443-1.261,5.664,5.664,0,0,1-.461,1.261.01.01,0,0,1-.016,0,1.3,1.3,0,0,0-2.144-.093.008.008,0,0,0,.01.014,1.325,1.325,0,0,1,1.56.415.009.009,0,0,1-.011.014,1.71,1.71,0,0,0-2.329,1.281.009.009,0,0,0,.017.006,1.337,1.337,0,0,1,.311-.38,2,2,0,0,1,1.613-.415,2.131,2.131,0,0,0-1.613,1.291c-.263.7-.01,1.632,0,1.4a2.136,2.136,0,0,1,1.565-2.1.008.008,0,0,1,.008.014,2.558,2.558,0,0,0-.7,3.227,2.659,2.659,0,0,1,.9-2.48c.007-.005.021,0,.014.009a2.773,2.773,0,0,0,.342,3.134.009.009,0,0,0,.016-.007c-.187-.45-.437-2.019.455-2.581.006,0,.014,0,.014,0a24.15,24.15,0,0,1-.116,6.015,6.819,6.819,0,0,0-4.6-1.713,5.356,5.356,0,0,0-2.381.662.02.02,0,0,0,.018.036c2.61-.833,4.869.18,6.968,1.927a23.493,23.493,0,0,1-2.583,2.184.585.585,0,1,0-.929.711c.917.915,2.349-.9,4.064-2.418,1.65,1.458,3.15,3.331,4.065,2.418a.656.656,0,0,0,.114-.506.585.585,0,0,0-1.043-.2,22.9,22.9,0,0,1-2.583-2.184c2.114-1.763,4.349-2.748,6.967-1.927a.02.02,0,0,0,.019-.036" transform="translate(-589.915 -1552.599)"/></g></g></svg>