<svg id="Layer_1" data-name="Layer 1" xmlns="http://www.w3.org/2000/svg" viewBox="0 0 352 272"><defs><style>.cls-1{fill:#f1f1f1;}.cls-2{fill:#fff;}.cls-3{fill:#cac9c9;}.cls-4{fill:#e3e2e2;}.cls-5{fill:#0f6737;}.cls-6{fill:#403d56;}</style></defs><title>Artboard 1TansiqLogo</title><path class="cls-1" d="M248.56,234.45,145.72,187.5l52.95-116,102.84,46.94Z"/><path class="cls-2" d="M264.22,167.07l-77.85-35.54a.61.61,0,1,1,.51-1.11h0L264.73,166a.61.61,0,1,1-.51,1.11Z"/><path class="cls-2" d="M268.55,157.59,190.7,122.05a.61.61,0,1,1,.51-1.11h0l77.84,35.54a.61.61,0,1,1-.5,1.11Z"/><path class="cls-2" d="M272.88,148.1,195,112.57a.62.62,0,0,1-.3-.81.61.61,0,0,1,.81-.3L273.38,147a.6.6,0,1,1-.5,1.1Z"/><path class="cls-2" d="M277.21,138.62l-77.85-35.54a.61.61,0,1,1,.51-1.1l77.84,35.54a.6.6,0,0,1-.5,1.1Z"/><path class="cls-2" d="M260.31,175.64,182.46,140.1A.61.61,0,0,1,183,139l77.84,35.54a.61.61,0,0,1-.5,1.11Z"/><path class="cls-2" d="M273.31,124.71,212.5,97a1.5,1.5,0,0,1-.85-1.83,1.46,1.46,0,0,1,1.85-.92l.14.06L274.43,122a1.53,1.53,0,0,1,.86,1.86,1.45,1.45,0,0,1-1.86.89Z"/><path class="cls-1" d="M39.33,118.46,142.17,71.52l53,116L92.28,234.45Z"/><path class="cls-2" d="M76.62,167.07l77.85-35.54a.61.61,0,0,0-.51-1.11L76.11,166a.62.62,0,0,0-.3.81.62.62,0,0,0,.81.3Z"/><path class="cls-2" d="M72.29,157.59l77.85-35.54a.61.61,0,0,0-.51-1.11h0L71.79,156.48a.61.61,0,0,0,.5,1.11Z"/><path class="cls-2" d="M68,148.1l77.85-35.53a.62.62,0,0,0,.3-.81.61.61,0,0,0-.81-.3L67.46,147a.6.6,0,0,0,.5,1.1Z"/><path class="cls-2" d="M63.63,138.62l77.85-35.54a.6.6,0,0,0-.5-1.1L63.13,137.52a.6.6,0,0,0,.5,1.1Z"/><path class="cls-2" d="M80.53,175.64l77.85-35.54a.61.61,0,1,0-.51-1.11L80,174.53a.61.61,0,0,0,.5,1.11Z"/><path class="cls-2" d="M67.53,124.71,128.34,97a1.5,1.5,0,0,0,.85-1.83,1.46,1.46,0,0,0-1.85-.92l-.14.06L66.41,122a1.53,1.53,0,0,0-.86,1.86,1.45,1.45,0,0,0,1.86.89Z"/><path class="cls-2" d="M246.93,235.42H93.16V62H246.93Z"/><path class="cls-3" d="M246.93,235.42H93.16V62H246.93ZM94,234.6H246.1V62.82H94Z"/><path class="cls-4" d="M228.25,143.2H111.84a.83.83,0,0,1,0-1.66H228.25a.83.83,0,0,1,0,1.66Z"/><path class="cls-4" d="M228.25,129H111.84a.83.83,0,0,1-.82-.83.84.84,0,0,1,.82-.83H228.25a.84.84,0,0,1,.82.83A.83.83,0,0,1,228.25,129Z"/><path class="cls-4" d="M228.25,114.84H111.84a.83.83,0,0,1,0-1.65H228.25a.83.83,0,0,1,0,1.65Z"/><path class="cls-4" d="M228.25,100.66H111.84a.83.83,0,0,1,0-1.65H228.25a.83.83,0,0,1,0,1.65Z"/><path class="cls-4" d="M228.25,156H111.84a.83.83,0,0,1,0-1.65H228.25a.83.83,0,0,1,0,1.65Z"/><path class="cls-4" d="M228.25,219.62H111.84a.83.83,0,0,1,0-1.65H228.25a.83.83,0,0,1,0,1.65Z"/><path class="cls-2" d="M200.36,206.35H139.73a1.52,1.52,0,0,1-1.53-1.53V169.16a1.52,1.52,0,0,1,1.53-1.53h60.63a1.52,1.52,0,0,1,1.53,1.53v35.66A1.52,1.52,0,0,1,200.36,206.35Z"/><path class="cls-5" d="M180.11,186a3.36,3.36,0,0,0-4.76-.17l-.08.08L158.2,203a2.4,2.4,0,0,1-3.39,0l-2.53-2.52a3.36,3.36,0,0,0-4.76,0h0l-4.89,4.89h54.83v-.69Z"/><path class="cls-6" d="M200.36,206.35H139.73a1.52,1.52,0,0,1-1.53-1.53V169.16a1.52,1.52,0,0,1,1.53-1.53h60.63a1.52,1.52,0,0,1,1.53,1.53v35.66A1.52,1.52,0,0,1,200.36,206.35Zm-60.63-37.7a.51.51,0,0,0-.51.51v35.66a.51.51,0,0,0,.51.51h60.63a.5.5,0,0,0,.51-.51V169.16a.5.5,0,0,0-.51-.51Z"/><path class="cls-5" d="M215.57,85.65H124.64a2.06,2.06,0,0,1-2.09-1.78,2,2,0,0,1,1.77-2.18l.21,0h90.89a2.1,2.1,0,0,1,2.13,1.82,2,2,0,0,1-1.81,2.15Z"/></svg>