<svg id="Layer_1" data-name="Layer 1" xmlns="http://www.w3.org/2000/svg" viewBox="0 0 687.57 626.56"><defs><style>.cls-1{fill:#deb453;}.cls-2{fill:#0a803f;}.cls-3{fill:#d0d7d4;}</style></defs><title>Artboard 1TansiqLogo</title><polygon class="cls-1" points="100.78 587.72 84.62 573.33 194.03 450.42 292.6 500.17 409.53 401.59 527.1 385.23 584.86 272.51 604.13 282.39 541.23 405.12 418.7 422.16 295.62 525.94 199.13 477.24 100.78 587.72"/><polygon class="cls-1" points="607.57 304.65 590.83 284.59 564.78 282.72 612.17 242.96 607.57 304.65"/><polygon class="cls-2" points="418.31 526.27 288.12 475.77 193.31 412.63 92.7 412.65 92.7 391 199.86 390.99 299.12 457.09 409.92 499.83 524.08 328.85 587.48 173.87 607.52 182.07 542.68 339.97 418.31 526.27"/><polygon class="cls-2" points="612.85 203.95 594.46 185.39 568.34 185.75 612.17 142.09 612.85 203.95"/><polygon class="cls-3" points="612.17 587.74 85.48 587.74 85.48 61.05 99.92 61.05 99.92 573.31 612.17 573.31 612.17 587.74"/></svg>