<svg id="Layer_1" data-name="Layer 1" xmlns="http://www.w3.org/2000/svg" viewBox="0 0 520 332"><defs><style>.cls-1{fill:#e7e6e6;}.cls-2{fill:#fff;}.cls-3{fill:#116838;}</style></defs><title>Artboard 1TansiqLogo</title><path class="cls-1" d="M480.66,310H37.43a13.5,13.5,0,0,1-13.49-13.48V46.6h470.2V296.52A13.5,13.5,0,0,1,480.66,310Z"/><path class="cls-2" d="M463,284.19H55.07a7,7,0,0,1-7-6.95V79.36a7,7,0,0,1,7-7H463a7,7,0,0,1,6.94,7V277.24A7,7,0,0,1,463,284.19Z"/><path class="cls-3" d="M495.08,55.71H23V44.88A13.5,13.5,0,0,1,36.48,31.4H481.6a13.49,13.49,0,0,1,13.48,13.48Z"/><path class="cls-1" d="M151.56,208.42H79A6.94,6.94,0,0,1,72,201.48V153.74A6.94,6.94,0,0,1,79,146.8h72.61a7,7,0,0,1,6.95,6.94v47.74A7,7,0,0,1,151.56,208.42Z"/><path class="cls-1" d="M442.21,154.52H212.8a3.86,3.86,0,1,1,0-7.72H442.21a3.86,3.86,0,1,1,0,7.72Z"/><path class="cls-1" d="M442.21,182.16H212.8a3.86,3.86,0,1,1,0-7.72H442.21a3.86,3.86,0,1,1,0,7.72Z"/><path class="cls-1" d="M442.21,209.8H212.8a3.86,3.86,0,1,1,0-7.72H442.21a3.86,3.86,0,1,1,0,7.72Z"/></svg>