<svg id="Layer_1" data-name="Layer 1" xmlns="http://www.w3.org/2000/svg" viewBox="0 0 349.69 289"><defs><style>.cls-1{fill:#fefefe;}.cls-2{fill:#fdfdfd;}.cls-3{fill:#0d7f3f;}</style></defs><title>Artboard 1TansiqLogo</title><path class="cls-1" d="M349.63,163.73q0,79.72.06,159.45c0,2.33-.46,2.79-2.79,2.79q-172-.11-344.11,0C.46,326,0,325.51,0,323.18q.11-172,0-344.11c0-2.33.46-2.79,2.79-2.79q172,.11,344.11,0c2.33,0,2.79.46,2.79,2.79q-.12,79.72-.06,159.45c-.74-.2-.62-.83-.66-1.36a140.46,140.46,0,0,0-8.32-38.06c-8.4-22.28-20.92-41.62-41.8-54.1-23.22-13.87-47-13.78-70.24,0C211.12,55.33,199.36,70.93,191,89.11c-12.76,27.82-15.89,57-11,87.08,4.31,26.47,14.56,50.2,34.06,69.22,12.66,12.36,27.67,20.1,45.56,21.09,25.13,1.39,44.7-9.73,60.5-28.27,15.33-18,23.5-39.25,27.48-62.34C348.33,171.84,347.87,167.6,349.63,163.73ZM172.49,152.07c-.1-19.29-2.84-36.92-9.3-53.84-8.41-22-21-41.11-41.67-53.38C98.4,31.14,74.68,31.16,51.57,45,30.68,57.44,17.83,76.66,9.8,99.07c-12.3,34.32-12.32,69,0,103.29,8,22.54,21,41.79,42,54.37,20.12,12.07,41.29,13.44,62.8,3.71,18-8.12,30.53-22.08,40.13-38.86C167.16,199.7,172.24,175.87,172.49,152.07Z"/><path d="M349.63,163.73c-1.76,3.87-1.3,8.11-2,12.16-4,23.09-12.15,44.36-27.48,62.34-15.8,18.54-35.37,29.66-60.5,28.27-17.89-1-32.9-8.73-45.56-21.09-19.5-19-29.75-42.75-34.06-69.22-4.9-30.05-1.77-59.26,11-87.08,8.34-18.18,20.1-33.78,37.59-44.12,23.29-13.77,47-13.86,70.24,0,20.88,12.48,33.4,31.82,41.8,54.1A140.46,140.46,0,0,1,349,137.16c0,.53-.08,1.16.66,1.36Zm-15.72-13.1a142.44,142.44,0,0,0-4.12-33.35c-5.48-21.08-14.79-40-32.11-53.95C282.31,51,265.06,46.88,246.08,54c-16.92,6.32-28.42,18.82-36.82,34.2-16.84,30.83-19.53,63.53-11.17,97.26,5.16,20.81,14.79,39.28,31.85,52.92,15.29,12.23,32.4,16.24,51.31,9.34,13.88-5.07,24.08-14.71,32.25-26.62C328.06,199.87,333.54,176,333.91,150.63Z"/><path d="M172.49,152.07c-.25,23.8-5.33,47.63-17.84,69.51-9.6,16.78-22.17,30.74-40.13,38.86-21.51,9.73-42.68,8.36-62.8-3.71-21-12.58-33.91-31.83-42-54.37C-2.52,168-2.5,133.39,9.8,99.07c8-22.41,20.88-41.63,41.77-54.1,23.11-13.81,46.83-13.83,69.95-.12,20.7,12.27,33.26,31.35,41.67,53.38C169.65,115.15,172.39,132.78,172.49,152.07Zm-156-1.42a142.74,142.74,0,0,0,4.13,33.7c5.49,21.07,15,39.78,32.09,54,18.47,15.35,42.95,16.8,62.84,3.62,13.68-9.06,23-21.72,29.67-36.43C158,177,159.94,147.3,152.55,117.07c-5.17-21.15-14.8-40-32.16-53.88C105.09,51,88,47,69.07,53.91c-13.76,5-23.92,14.57-32,26.36C22.43,101.43,16.86,125.31,16.46,150.65Z"/><path class="cls-2" d="M333.91,150.63c-.37,25.34-5.85,49.24-20.41,70.43-8.17,11.91-18.37,21.55-32.25,26.62-18.91,6.9-36,2.89-51.31-9.34-17.06-13.64-26.69-32.11-31.85-52.92-8.36-33.73-5.67-66.43,11.17-97.26,8.4-15.38,19.9-27.88,36.82-34.2,19-7.08,36.23-3,51.6,9.37,17.32,13.93,26.63,32.87,32.11,54A142.44,142.44,0,0,1,333.91,150.63ZM262.54,190c17.91,1.58,35.47-12.19,39.74-31.17,4.23-18.8-6.77-38.35-25.36-45A39.33,39.33,0,0,0,228.66,133c-8.24,16.41-3.73,38.34,9.78,47.51,1.08-4.81,3.35-6.82,8.37-7.33A19.27,19.27,0,0,1,260,176.47C265.9,180.48,266.63,184.48,262.54,190Z"/><path class="cls-2" d="M16.46,150.65c.4-25.34,6-49.22,20.56-70.38,8.13-11.79,18.29-21.34,32-26.36C88,47,105.09,51,120.39,63.19c17.36,13.88,27,32.73,32.16,53.88,7.39,30.23,5.48,59.89-7.36,88.46-6.62,14.71-16,27.37-29.67,36.43-19.89,13.18-44.37,11.73-62.84-3.62-17.1-14.21-26.6-32.92-32.09-54A142.74,142.74,0,0,1,16.46,150.65ZM61.2,180.53c1.61-5.43,3.9-7.22,9.71-7.49a19.2,19.2,0,0,1,12.18,3.54c5.64,4,6.36,7.91,2.46,13.32,16.73,1.84,34.65-11.53,39.15-29.19a39.33,39.33,0,0,0-72.22-29.42C43.08,147.64,47,169.5,61.2,180.53Z"/><path class="cls-3" d="M262.54,190c4.09-5.49,3.36-9.49-2.51-13.5a19.27,19.27,0,0,0-13.22-3.33c-5,.51-7.29,2.52-8.37,7.33-13.51-9.17-18-31.1-9.78-47.51a39.33,39.33,0,0,1,48.26-19.2c18.59,6.69,29.59,26.24,25.36,45C298,177.78,280.45,191.55,262.54,190Zm14.93-50.85c.68-.09,1.58-.19,2.47-.34,3.42-.58,6.47-1.88,7.38-5.56.87-3.52-1.13-6.17-3.65-8.24a18.79,18.79,0,0,0-16.21-4.14c-2.91.59-5.42,2-6.29,5-.83,2.86.36,5.33,2.35,7.42C267.25,137.22,272,138.7,277.47,139.12Z"/><path class="cls-3" d="M61.2,180.53c-14.25-11-18.12-32.89-8.72-49.24a39.33,39.33,0,0,1,72.22,29.42c-4.5,17.66-22.42,31-39.15,29.19,3.9-5.41,3.18-9.35-2.46-13.32A19.2,19.2,0,0,0,70.91,173C65.1,173.31,62.81,175.1,61.2,180.53Zm39.16-41.41c.73-.11,1.74-.24,2.74-.41,3.33-.56,6.18-1.94,7.09-5.44s-.94-6-3.34-8a18.82,18.82,0,0,0-16.45-4.41c-2.93.57-5.42,2-6.34,5s.34,5.34,2.3,7.42C90.07,137.19,94.84,138.7,100.36,139.12Z"/><path class="cls-2" d="M277.47,139.12c-5.45-.42-10.22-1.9-14-5.83-2-2.09-3.18-4.56-2.35-7.42.87-3,3.38-4.44,6.29-5A18.79,18.79,0,0,1,283.67,125c2.52,2.07,4.52,4.72,3.65,8.24-.91,3.68-4,5-7.38,5.56C279.05,138.93,278.15,139,277.47,139.12Z"/><path class="cls-2" d="M100.36,139.12c-5.52-.42-10.29-1.93-14-5.88-2-2.08-3.19-4.55-2.3-7.42s3.41-4.42,6.34-5a18.82,18.82,0,0,1,16.45,4.41c2.4,2.05,4.22,4.68,3.34,8s-3.76,4.88-7.09,5.44C102.1,138.88,101.09,139,100.36,139.12Z"/></svg>