<svg xmlns="http://www.w3.org/2000/svg" width="45.75" viewBox="0 0 45.75 38.25" height="38.25" version="1.0"><defs><clipPath id="a"><path d="M 0.316406 0 L 45.1875 0 L 45.1875 37.515625 L 0.316406 37.515625 Z M 0.316406 0"/></clipPath><clipPath id="b"><path d="M 7.265625 0.523438 L 38.328125 0.523438 L 38.328125 37 L 7.265625 37 Z M 7.265625 0.523438"/></clipPath></defs><g clip-path="url(#a)" fill="#FFF"><path d="M 0.316406 0 L 45.433594 0 L 45.433594 127.949219 L 0.316406 127.949219 Z M 0.316406 0"/><path d="M 0.316406 0 L 45.433594 0 L 45.433594 37.71875 L 0.316406 37.71875 Z M 0.316406 0"/><path d="M 0.316406 0 L 45.433594 0 L 45.433594 37.71875 L 0.316406 37.71875 Z M 0.316406 0"/></g><g clip-path="url(#b)"><path fill="#737373" d="M 20.359375 0.761719 C 19.933594 0.773438 19.59375 1.125 19.597656 1.554688 L 19.597656 6.242188 C 19.597656 6.523438 19.742188 6.785156 19.980469 6.929688 C 20.222656 7.070312 20.519531 7.070312 20.757812 6.929688 C 21 6.785156 21.144531 6.523438 21.140625 6.242188 L 21.140625 1.554688 C 21.144531 1.34375 21.0625 1.140625 20.914062 0.992188 C 20.765625 0.84375 20.566406 0.757812 20.359375 0.761719 Z M 13.425781 3.113281 C 13.109375 3.113281 12.832031 3.304688 12.710938 3.597656 C 12.59375 3.894531 12.664062 4.230469 12.886719 4.453125 L 15.972656 7.574219 C 16.164062 7.78125 16.453125 7.863281 16.722656 7.789062 C 16.992188 7.71875 17.203125 7.503906 17.273438 7.230469 C 17.34375 6.960938 17.261719 6.667969 17.0625 6.472656 L 13.976562 3.347656 C 13.832031 3.195312 13.632812 3.113281 13.425781 3.113281 Z M 27.292969 3.113281 C 27.089844 3.113281 26.902344 3.199219 26.761719 3.347656 L 23.679688 6.472656 C 23.476562 6.667969 23.394531 6.960938 23.46875 7.230469 C 23.539062 7.503906 23.75 7.71875 24.019531 7.789062 C 24.289062 7.863281 24.578125 7.78125 24.769531 7.574219 L 27.851562 4.453125 C 28.082031 4.226562 28.148438 3.882812 28.023438 3.589844 C 27.898438 3.289062 27.609375 3.101562 27.292969 3.113281 Z M 35.148438 4.679688 C 34.589844 4.679688 34.03125 4.898438 33.605469 5.328125 L 18.828125 20.300781 C 18.828125 20.300781 16.574219 16.003906 15.445312 14.855469 C 13.472656 12.859375 9.65625 11.882812 8.652344 12.898438 L 7.265625 14.300781 L 11.625 18.71875 L 14.972656 28.894531 L 21.027344 35.027344 C 23.21875 37.25 26.769531 37.25 28.964844 35.027344 L 37.460938 26.417969 C 38.3125 25.554688 38.3125 24.15625 37.460938 23.292969 C 36.609375 22.429688 35.230469 22.429688 34.375 23.292969 L 35.148438 22.511719 C 36 21.648438 36 20.25 35.148438 19.386719 C 34.296875 18.523438 32.917969 18.523438 32.066406 19.386719 L 32.835938 18.605469 C 33.6875 17.742188 33.6875 16.34375 32.835938 15.480469 C 31.984375 14.617188 30.605469 14.617188 29.753906 15.480469 L 36.6875 8.453125 C 37.542969 7.589844 37.542969 6.191406 36.6875 5.328125 C 36.265625 4.898438 35.703125 4.679688 35.148438 4.679688 Z M 35.148438 4.679688"/></g></svg>