<svg xmlns="http://www.w3.org/2000/svg" width="45.75" viewBox="0 0 45.75 38.25" height="38.25" version="1.0"><defs><clipPath id="a"><path d="M 0.316406 0 L 45.1875 0 L 45.1875 37.515625 L 0.316406 37.515625 Z M 0.316406 0"/></clipPath><clipPath id="b"><path d="M 12 25 L 17 25 L 17 31.921875 L 12 31.921875 Z M 12 25"/></clipPath><clipPath id="c"><path d="M 6 22 L 11 22 L 11 31.921875 L 6 31.921875 Z M 6 22"/></clipPath><clipPath id="d"><path d="M 18 19 L 23 19 L 23 31.921875 L 18 31.921875 Z M 18 19"/></clipPath><clipPath id="e"><path d="M 24 22 L 29 22 L 29 31.921875 L 24 31.921875 Z M 24 22"/></clipPath><clipPath id="f"><path d="M 30 12 L 35 12 L 35 31.921875 L 30 31.921875 Z M 30 12"/></clipPath><clipPath id="g"><path d="M 37 7 L 40.328125 7 L 40.328125 31.921875 L 37 31.921875 Z M 37 7"/></clipPath><clipPath id="h"><path d="M 4.089844 6.039062 L 36 6.039062 L 36 24 L 4.089844 24 Z M 4.089844 6.039062"/></clipPath><clipPath id="i"><path d="M 34 6.039062 L 37 6.039062 L 37 10 L 34 10 Z M 34 6.039062"/></clipPath></defs><g clip-path="url(#a)" fill="#FFF"><path d="M 0.316406 0 L 45.433594 0 L 45.433594 37.71875 L 0.316406 37.71875 Z M 0.316406 0"/><path d="M 0.316406 0 L 45.433594 0 L 45.433594 37.71875 L 0.316406 37.71875 Z M 0.316406 0"/></g><g clip-path="url(#b)"><path fill="#737373" d="M 16.144531 31.917969 L 12.847656 31.917969 L 12.847656 25.53125 L 16.144531 25.53125 L 16.144531 31.917969"/></g><path fill="#737373" d="M 7.003906 18.6875 C 6.660156 19.503906 7.039062 20.445312 7.847656 20.789062 C 8.65625 21.136719 9.589844 20.757812 9.933594 19.941406 C 10.277344 19.125 9.898438 18.183594 9.089844 17.839844 C 8.28125 17.492188 7.347656 17.875 7.003906 18.6875"/><path fill="#737373" d="M 13.03125 22.351562 C 12.6875 23.164062 13.066406 24.105469 13.875 24.453125 C 14.683594 24.796875 15.617188 24.417969 15.960938 23.601562 C 16.304688 22.785156 15.925781 21.84375 15.117188 21.5 C 14.308594 21.152344 13.375 21.535156 13.03125 22.351562"/><path fill="#737373" d="M 19.058594 16.46875 C 18.714844 17.285156 19.09375 18.226562 19.902344 18.570312 C 20.710938 18.917969 21.644531 18.535156 21.988281 17.722656 C 22.332031 16.90625 21.953125 15.964844 21.144531 15.617188 C 20.335938 15.273438 19.402344 15.652344 19.058594 16.46875"/><path fill="#737373" d="M 25.085938 17.996094 C 24.742188 18.8125 25.121094 19.753906 25.929688 20.097656 C 26.738281 20.445312 27.671875 20.0625 28.015625 19.246094 C 28.359375 18.433594 27.980469 17.492188 27.171875 17.144531 C 26.363281 16.800781 25.429688 17.179688 25.085938 17.996094"/><path fill="#737373" d="M 30.886719 8.371094 C 30.542969 9.183594 30.921875 10.125 31.730469 10.472656 C 32.539062 10.816406 33.472656 10.4375 33.816406 9.621094 C 34.160156 8.804688 33.78125 7.867188 32.972656 7.519531 C 32.164062 7.171875 31.230469 7.554688 30.886719 8.371094"/><g clip-path="url(#c)"><path fill="#737373" d="M 10.117188 31.917969 L 6.820312 31.917969 L 6.820312 22.160156 L 10.117188 22.160156 L 10.117188 31.917969"/></g><g clip-path="url(#d)"><path fill="#737373" d="M 22.171875 31.917969 L 18.875 31.917969 L 18.875 19.316406 L 22.171875 19.316406 L 22.171875 31.917969"/></g><g clip-path="url(#e)"><path fill="#737373" d="M 28.199219 31.917969 L 24.902344 31.917969 L 24.902344 22.160156 L 28.199219 22.160156 L 28.199219 31.917969"/></g><g clip-path="url(#f)"><path fill="#737373" d="M 34.285156 31.917969 L 30.984375 31.917969 L 30.984375 12.527344 L 34.285156 12.527344 L 34.285156 31.917969"/></g><g clip-path="url(#g)"><path fill="#737373" d="M 40.3125 31.917969 L 37.011719 31.917969 L 37.011719 7.621094 L 40.3125 7.621094 L 40.3125 31.917969"/></g><g clip-path="url(#h)"><path fill="#737373" d="M 35.410156 6.726562 L 31.851562 8.34375 L 26.339844 18.054688 L 20.386719 15.917969 L 14.652344 22.382812 L 8.449219 18.765625 L 4.109375 21.761719 L 4.109375 22.886719 L 8.488281 19.863281 L 14.839844 23.566406 L 20.660156 17.003906 L 26.757812 19.191406 L 32.5 9.066406 L 35.789062 7.574219 L 35.410156 6.726562"/></g><g clip-path="url(#i)"><path fill="#737373" d="M 35.089844 9.007812 L 35.398438 7.238281 L 34.085938 6.03125 L 36.71875 6.789062 L 35.089844 9.007812"/></g></svg>