<svg xmlns="http://www.w3.org/2000/svg" width="45.75" viewBox="0 0 45.75 38.25" height="38.25" version="1.0"><defs><clipPath id="a"><path d="M 0.316406 0 L 45.1875 0 L 45.1875 37.515625 L 0.316406 37.515625 Z M 0.316406 0"/></clipPath><clipPath id="b"><path d="M 11.457031 3.773438 L 35.125 3.773438 L 35.125 34.09375 L 11.457031 34.09375 Z M 11.457031 3.773438"/></clipPath></defs><g clip-path="url(#a)" fill="#FFF"><path d="M 0.316406 0 L 45.433594 0 L 45.433594 37.71875 L 0.316406 37.71875 Z M 0.316406 0"/><path d="M 0.316406 0 L 45.433594 0 L 45.433594 37.71875 L 0.316406 37.71875 Z M 0.316406 0"/></g><g clip-path="url(#b)"><path fill="#737373" d="M 34.378906 13.542969 L 23.09375 24.046875 C 22.808594 24.308594 22.453125 24.445312 22.09375 24.445312 C 21.707031 24.445312 21.328125 24.289062 21.035156 23.996094 L 15.804688 18.613281 C 15.632812 18.4375 15.636719 18.152344 15.8125 17.980469 L 17.285156 16.519531 C 17.460938 16.347656 17.742188 16.347656 17.914062 16.527344 L 21.84375 20.566406 C 22.011719 20.738281 22.285156 20.746094 22.460938 20.582031 L 34.0625 9.777344 C 34.292969 9.5625 34.238281 9.1875 33.957031 9.046875 L 23.621094 3.871094 C 23.410156 3.773438 23.171875 3.773438 22.957031 3.871094 L 11.925781 9.390625 C 11.640625 9.523438 11.457031 9.8125 11.457031 10.128906 L 11.457031 23.058594 C 11.457031 23.152344 11.472656 23.238281 11.496094 23.328125 C 11.914062 24.542969 14.3125 32.714844 23.15625 34.082031 C 23.246094 34.09375 23.335938 34.09375 23.421875 34.082031 C 32.128906 32.734375 34.589844 24.796875 35.058594 23.386719 C 35.101562 23.257812 35.121094 23.121094 35.121094 22.984375 L 35.121094 13.871094 C 35.121094 13.480469 34.660156 13.277344 34.378906 13.542969"/></g></svg>