<svg id="Layer_1" data-name="Layer 1" xmlns="http://www.w3.org/2000/svg" viewBox="0 0 687.57 626.56"><defs><style>.cls-1{fill:#116838;}.cls-2{fill:#deb453;}.cls-3{fill:#010101;opacity:0.2;isolation:isolate;}</style></defs><title>Artboard 1TansiqLogo</title><path class="cls-1" d="M531.9,215.07v310.6a15.48,15.48,0,0,1-15.44,15.44H182.25a15.48,15.48,0,0,1-15.44-15.44V215.07a15.45,15.45,0,0,1,15.44-15.44H516.46A15.44,15.44,0,0,1,531.9,215.07Z"/><path class="cls-2" d="M373,542.67H325.74a15.26,15.26,0,0,1-15.44-15V205.43a15.27,15.27,0,0,1,15.44-15H373a15.27,15.27,0,0,1,15.44,15v322.2A15.26,15.26,0,0,1,373,542.67Z"/><path class="cls-2" d="M339.63,102.41c24.27,21,16.61,69.62,16.61,69.62s-47,14.56-71.29-6.45S268.34,96,268.34,96,315.36,81.4,339.63,102.41Z"/><path class="cls-2" d="M420.25,161.56c-20.93,24.33-69.57,16.82-69.57,16.82s-14.71-47,6.22-71.31,69.58-16.82,69.58-16.82S441.18,137.22,420.25,161.56Z"/><path class="cls-3" d="M531.9,215.07v52.29l-365.09-1.54V215.07a15.45,15.45,0,0,1,15.44-15.44H516.46A15.44,15.44,0,0,1,531.9,215.07Z"/><path class="cls-1" d="M571.21,246.86a15.41,15.41,0,0,1-12.33,6.08L152,251.23a15.43,15.43,0,0,1-15.37-15.5h0l.19-45.41A15.43,15.43,0,0,1,152.33,175h0l406.87,1.7a15.44,15.44,0,0,1,15.37,15.51h0l-.19,45.41A15.32,15.32,0,0,1,571.21,246.86Z"/><rect class="cls-2" x="309.3" y="173.96" width="81.74" height="78.1" transform="translate(135.75 562.32) rotate(-89.77)"/></svg>