<svg id="Layer_1" data-name="Layer 1" xmlns="http://www.w3.org/2000/svg" viewBox="0 0 349.69 289"><defs><style>.cls-1{fill:#0d7f3f;}</style></defs><title>Artboard 1Map</title><path class="cls-1" d="M173.49,257.6a406.43,406.43,0,0,1-37.11-41c-13.44-16.91-25.62-34.65-35.06-54.16-6-12.33-10.72-25.06-12.53-38.73a82.94,82.94,0,0,1,12-56.09c14-22.67,34.48-36.28,60.79-40.63,34.76-5.74,70.39,11.26,88.08,41.76,13.91,24,15.41,49.12,6.41,75.13-6.71,19.39-16.89,36.94-28.56,53.69a421.52,421.52,0,0,1-49,57.93c-.73.74-1.51,1.42-2.27,2.13ZM135,112.91a39.82,39.82,0,0,0,79.63.1c0-22-17.69-40-39.43-40A39.83,39.83,0,0,0,135,112.91Z"/></svg>