<svg id="Layer_1" data-name="Layer 1" xmlns="http://www.w3.org/2000/svg" viewBox="0 0 687.57 626.56"><defs><style>.cls-1{fill:#deb453;}.cls-2{fill:#0a803f;}.cls-3{fill:#116838;}.cls-4{fill:#fff;}</style></defs><title>Artboard 1TansiqLogo</title><path id="_Path_" data-name="&lt;Path&gt;" class="cls-1" d="M335.79,80.45c-27.38,8.87-92.47,23.51-179.86,1.07-11.3-2.9-22.37,5.36-22.37,16.83V289.12c0,84.87,37.46,166.11,104,220.26,35.14,28.59,75,51.47,112.46,51.47,35.9,0,73.95-21,108-47.86A285.28,285.28,0,0,0,566.53,289.05V98.35c0-11.47-11.07-19.73-22.38-16.83-87.38,22.44-152.47,7.8-179.86-1.07A46.25,46.25,0,0,0,335.79,80.45Z"/><path id="_Path_2" data-name="&lt;Path&gt;" class="cls-2" d="M350,513.61c-20.54,0-49.58-14.42-81.76-40.6-55-44.78-86.62-111.8-86.62-183.89V135.19a404.67,404.67,0,0,0,65.59,5.44c45.94,0,81.13-8.13,102.79-15.07,21.66,6.94,56.85,15.07,102.8,15.07a404.46,404.46,0,0,0,65.58-5.44V289.05a237.15,237.15,0,0,1-90.58,187.14C397.3,500.32,369.67,513.61,350,513.61Z"/><path id="_Path_3" data-name="&lt;Path&gt;" class="cls-3" d="M427.84,476.19a237.15,237.15,0,0,0,90.58-187.14V135.19a404.46,404.46,0,0,1-65.58,5.44c-45.95,0-81.14-8.13-102.8-15.07V513.61C369.67,513.61,397.3,500.32,427.84,476.19Z"/><path id="_Path_4" data-name="&lt;Path&gt;" class="cls-4" d="M335.15,398.23a19.88,19.88,0,0,1-13.2-5l-59.87-59.58a19.86,19.86,0,0,1,26.39-29.69l43.16,44.73,84-120.68a19.86,19.86,0,0,1,32.6,22.7l-96.83,139a19.84,19.84,0,0,1-14,8.37A20.37,20.37,0,0,1,335.15,398.23Z"/></svg>