<svg id="Layer_1" data-name="Layer 1" xmlns="http://www.w3.org/2000/svg" viewBox="0 0 687.57 626.56"><defs><style>.cls-1{fill:#deb453;}.cls-2{fill:#fff;}</style></defs><title>Artboard 1TansiqLogo</title><path class="cls-1" d="M536.22,248c0,97.4-176.35,326.72-176.35,326.72S183.51,345.42,183.51,248a176.36,176.36,0,0,1,352.71,0Z"/><path class="cls-2" d="M237.14,323.52v-5.64a57.59,57.59,0,0,1,.93-10.1,55.42,55.42,0,0,1,4.45-13.93,78.6,78.6,0,0,1,7.12-12A117.39,117.39,0,0,1,258.45,271l9.47-10.35a24.62,24.62,0,0,0,4.39-6.88,22.18,22.18,0,0,0,1.59-8.66,16.45,16.45,0,0,0-1.36-7.32q-1.37-2.72-5-2.72-5.85,0-5.85,10.45V255.8h-24.6l-.26-3.1A106.37,106.37,0,0,1,238.17,236a31.3,31.3,0,0,1,4.65-12.48,22,22,0,0,1,9.44-7.8q6-2.72,15.66-2.72a36.18,36.18,0,0,1,13.16,2.23,26.19,26.19,0,0,1,9.61,6.36,27.47,27.47,0,0,1,5.91,10,42.42,42.42,0,0,1-.39,27.09,51.67,51.67,0,0,1-6.22,11.9,77.36,77.36,0,0,1-6.32,8.08q-3.26,3.6-6.41,7.12T271.18,293a50.61,50.61,0,0,0-5.25,8.35h31.9v22.14Z"/><path class="cls-2" d="M367.67,284v21H363v18.63H338.48V305h-36V286.6l23.47-72.54H363V284Zm-42.35,0h13.16V234.21Z"/><path class="cls-2" d="M397.42,323.52H373.29L400.54,202h24.2Z"/><path class="cls-2" d="M431.62,323.45a145.11,145.11,0,0,1,2.19-16.12q1.53-7.87,3.69-15.5t4.92-15q2.76-7.4,5.89-14.68,2.25-5,3.92-8.59t2.82-6.33c.78-1.79,1.43-3.29,2-4.5s1-2.26,1.32-3.13.64-1.59.84-2.17.36-1.11.49-1.61h-33V214h59v17.54a30.66,30.66,0,0,1-1.7,6.84q-1.29,3.54-3.09,7.56t-4,8.63q-2.24,4.6-4.49,10-2.26,5.57-4.55,11.76t-4.26,13.37q-1.95,7.18-3.42,15.54a162.39,162.39,0,0,0-2.06,18.25H431.62Z"/><path class="cls-2" d="M267.83,374.86q-2.62-3-2.86-9.25l6.67-1.17a13.26,13.26,0,0,0,1,5.51,2.94,2.94,0,0,0,2.75,1.78,2.2,2.2,0,0,0,2-.9,4,4,0,0,0,.61-2.31,7.33,7.33,0,0,0-1-4,17.29,17.29,0,0,0-3.17-3.56l-3.94-3.55a15.67,15.67,0,0,1-3.59-4.37A11.67,11.67,0,0,1,265,347.5q0-4.81,2.74-7.41a10.6,10.6,0,0,1,7.58-2.6c3.45,0,5.84,1,7.19,3.09a15.88,15.88,0,0,1,2.3,7.84l-6.72,1a14.5,14.5,0,0,0-.68-4.59,2.51,2.51,0,0,0-4.29-.48,3.94,3.94,0,0,0-.71,2.35,6.21,6.21,0,0,0,.82,3.28,14.25,14.25,0,0,0,2.61,2.94l3.85,3.49a21.23,21.23,0,0,1,4.27,5.22,12.81,12.81,0,0,1,1.55,6.43,10.26,10.26,0,0,1-1.22,5,8.72,8.72,0,0,1-3.45,3.47,10.28,10.28,0,0,1-5.14,1.26C272.21,377.84,269.59,376.85,267.83,374.86Z"/><path class="cls-2" d="M297.6,338h16.57v5.53H305.3V354h6.85v5.59H305.3v12.33h9v5.44H297.6Z"/><path class="cls-2" d="M326.19,338H336q6.16,0,9.25,2.33t3.1,8.06a15.56,15.56,0,0,1-1,6.19,7,7,0,0,1-3.66,3.57L349,377.31H341l-4.32-17.82h-2.82v17.82h-7.69Zm10,16.75c1.81,0,3.09-.46,3.82-1.38a6.94,6.94,0,0,0,1.11-4.35,7.33,7.33,0,0,0-1-4.27c-.66-.91-1.85-1.36-3.57-1.36h-2.68v11.36Z"/><path class="cls-2" d="M359.47,338h6.72l4.5,27.19L374.92,338h7l-7.23,39.33h-8Z"/><path class="cls-2" d="M393.84,338h7.7v39.33h-7.7Z"/><path class="cls-2" d="M417.26,374.47q-2.53-3.37-2.53-9.74V350.65q0-6.5,2.51-9.83t8.61-3.33q5.82,0,8.24,2.94t2.42,8.43v3.3H429v-3.64a19.1,19.1,0,0,0-.17-2.82,3.19,3.19,0,0,0-.84-1.77,2.78,2.78,0,0,0-2.09-.71c-1.41,0-2.32.47-2.72,1.41a10.78,10.78,0,0,0-.61,4.13v17.87a9.36,9.36,0,0,0,.7,4.13,2.7,2.7,0,0,0,2.63,1.36,2.45,2.45,0,0,0,2.54-1.39,11.55,11.55,0,0,0,.56-4.1v-3.84h7.51V366q0,5.64-2.39,8.72c-1.6,2.06-4.35,3.08-8.27,3.08S419,376.72,417.26,374.47Z"/><path class="cls-2" d="M449.23,338H465.8v5.53h-8.87V354h6.86v5.59h-6.86v12.33h9v5.44H449.23Z"/></svg>